<svg xmlns="http://www.w3.org/2000/svg" width="128" height="128" viewBox="0 0 128 128">
  <g>
    <rect x="25.126" y="6.306" width="77.747" height="115.387" rx="5" fill="#42db8f"/>
    <rect x="35.771" y="16.951" width="56.459" height="36.469" fill="#e5e5e5"/>
    <circle cx="64" cy="87.557" r="21.466" fill="#f7b82d"/>
    <polygon points="58.867 78.091 58.867 97.022 74.175 87.557 58.867 78.091" fill="#e5e5e5"/>
    <path d="M68.033,48.19a1.749,1.749,0,0,1-1.75-1.75V23.931a1.75,1.75,0,1,1,3.5,0V46.44A1.749,1.749,0,0,1,68.033,48.19Z" fill="#f74a37"/>
    <path d="M43.836,40.305a1.751,1.751,0,0,1-1.75-1.75v-6.74a1.75,1.75,0,1,1,3.5,0v6.74A1.751,1.751,0,0,1,43.836,40.305Z" fill="#f74a37"/>
    <path d="M51.9,48.19a1.75,1.75,0,0,1-1.75-1.75V23.931a1.75,1.75,0,1,1,3.5,0V46.44A1.75,1.75,0,0,1,51.9,48.19Z" fill="#f74a37"/>
    <path d="M59.967,42.711a1.75,1.75,0,0,1-1.75-1.75V29.41a1.75,1.75,0,1,1,3.5,0V40.961A1.749,1.749,0,0,1,59.967,42.711Z" fill="#f74a37"/>
    <path d="M84.164,41.019a1.75,1.75,0,0,1-1.75-1.75V31.1a1.75,1.75,0,0,1,3.5,0v8.167A1.75,1.75,0,0,1,84.164,41.019Z" fill="#f74a37"/>
    <path d="M76.1,45.681a1.75,1.75,0,0,1-1.75-1.75V26.439a1.75,1.75,0,0,1,3.5,0V43.931A1.751,1.751,0,0,1,76.1,45.681Z" fill="#f74a37"/>
  </g>
</svg>
