<svg xmlns="http://www.w3.org/2000/svg" viewBox="0 0 48 48"><defs><style>.cls-1{fill:#999999;}</style></defs><title>Asset 401</title><g id="Layer_2" data-name="Layer 2"><g id="_1" data-name="1"><rect class="cls-1" width="48" height="2"/><rect class="cls-1" y="46" width="48" height="2"/><rect class="cls-1" x="23" y="28" width="2" height="2"/><rect class="cls-1" x="23" y="24" width="2" height="2"/><path class="cls-1" d="M44,48H4a1,1,0,0,1-1-1V44a4,4,0,0,1,4-4H41a4,4,0,0,1,4,4v3A1,1,0,0,1,44,48ZM5,46H43V44a2,2,0,0,0-2-2H7a2,2,0,0,0-2,2Z"/><path class="cls-1" d="M26,25V23A13,13,0,0,0,39,10V8H9v2A13,13,0,0,0,22,23v2A15,15,0,0,1,7,10V7A1,1,0,0,1,8,6H40a1,1,0,0,1,1,1v3A15,15,0,0,1,26,25Z"/><path class="cls-1" d="M40,42H8a1,1,0,0,1-1-1V38A15,15,0,0,1,22,23v2A13,13,0,0,0,9,38v2H39V38A13,13,0,0,0,26,25V23A15,15,0,0,1,41,38v3A1,1,0,0,1,40,42Z"/><path class="cls-1" d="M41,8H7A4,4,0,0,1,3,4V1A1,1,0,0,1,4,0H44a1,1,0,0,1,1,1V4A4,4,0,0,1,41,8ZM5,2V4A2,2,0,0,0,7,6H41a2,2,0,0,0,2-2V2Z"/><path class="cls-1" d="M24,19a1.15,1.15,0,0,1-.26,0l-15-4L9.26,13,24,17,38.74,13,39.26,15l-15,4A1.15,1.15,0,0,1,24,19Z"/><path class="cls-1" d="M36.48,41.85,24,34.17,11.52,41.85l-1-1.7,13-8a1,1,0,0,1,1,0l13,8Z"/></g></g></svg>
